<?xml version="1.0" encoding="UTF-8" standalone="no"?>
<!-- Created with Inkscape (http://www.inkscape.org/) -->

<svg
   width="40mm"
   height="40mm"
   viewBox="0 0 40 40"
   version="1.1"
   id="svg5"
   xml:space="preserve"
   inkscape:version="1.3.1 (91b66b0783, 2023-11-16)"
   sodipodi:docname="body2.svg"
   xmlns:inkscape="http://www.inkscape.org/namespaces/inkscape"
   xmlns:sodipodi="http://sodipodi.sourceforge.net/DTD/sodipodi-0.dtd"
   xmlns="http://www.w3.org/2000/svg"
   xmlns:svg="http://www.w3.org/2000/svg"><sodipodi:namedview
     id="namedview7"
     pagecolor="#ffffff"
     bordercolor="#000000"
     borderopacity="0.25"
     inkscape:showpageshadow="2"
     inkscape:pageopacity="0.0"
     inkscape:pagecheckerboard="0"
     inkscape:deskcolor="#d1d1d1"
     inkscape:document-units="mm"
     showgrid="false"
     inkscape:zoom="8.0000002"
     inkscape:cx="50.374999"
     inkscape:cy="31.062499"
     inkscape:window-width="1920"
     inkscape:window-height="1094"
     inkscape:window-x="-11"
     inkscape:window-y="-11"
     inkscape:window-maximized="1"
     inkscape:current-layer="layer1"
     showguides="true" /><defs
     id="defs2"><inkscape:path-effect
       effect="bspline"
       id="path-effect9230"
       is_visible="true"
       lpeversion="1"
       weight="33.333333"
       steps="2"
       helper_size="0"
       apply_no_weight="true"
       apply_with_weight="true"
       only_selected="false"
       uniform="false" /><inkscape:path-effect
       effect="bspline"
       id="path-effect45223"
       is_visible="true"
       lpeversion="1"
       weight="33.333333"
       steps="2"
       helper_size="0"
       apply_no_weight="true"
       apply_with_weight="true"
       only_selected="false"
       uniform="false" /><inkscape:path-effect
       effect="bspline"
       id="path-effect45219"
       is_visible="true"
       lpeversion="1"
       weight="33.333333"
       steps="2"
       helper_size="0"
       apply_no_weight="true"
       apply_with_weight="true"
       only_selected="false"
       uniform="false" /><inkscape:path-effect
       effect="bspline"
       id="path-effect37057"
       is_visible="true"
       lpeversion="1"
       weight="33.333333"
       steps="2"
       helper_size="0"
       apply_no_weight="true"
       apply_with_weight="true"
       only_selected="false"
       uniform="false" /><inkscape:path-effect
       effect="bspline"
       id="path-effect35557"
       is_visible="true"
       lpeversion="1"
       weight="33.333333"
       steps="2"
       helper_size="0"
       apply_no_weight="true"
       apply_with_weight="true"
       only_selected="false"
       uniform="false" /><inkscape:path-effect
       effect="bspline"
       id="path-effect30471"
       is_visible="true"
       lpeversion="1"
       weight="33.333333"
       steps="2"
       helper_size="0"
       apply_no_weight="true"
       apply_with_weight="true"
       only_selected="false"
       uniform="false" /><inkscape:path-effect
       effect="bspline"
       id="path-effect8625"
       is_visible="true"
       lpeversion="1"
       weight="33.333333"
       steps="2"
       helper_size="0"
       apply_no_weight="true"
       apply_with_weight="true"
       only_selected="false"
       uniform="false" /><inkscape:path-effect
       effect="bspline"
       id="path-effect5641"
       is_visible="true"
       lpeversion="1"
       weight="33.333333"
       steps="2"
       helper_size="0"
       apply_no_weight="true"
       apply_with_weight="true"
       only_selected="false"
       uniform="false" /></defs><g
     inkscape:label="Layer 1"
     inkscape:groupmode="layer"
     id="layer1"><g
       id="g6"
       transform="matrix(1,0,0,-1,0,21.09605)"
       style="fill:#fdc60d;fill-opacity:1"><path
         style="fill:#fdc60d;fill-opacity:1;stroke-width:0.847089;stroke-linecap:square"
         d="m -0.21185332,19.318878 0.12974416,0.230154 c 0,0 0.12974417,0.18277 0.17148794,0.209847 0.0417438,0.02708 0.13876985,0.101539 0.13876985,0.101539 l 0.134257,0.05528 h 0.0936414 l 0.118462,-0.0361 0.086872,-0.08123 0.041744,-0.108308 c 0,0 0.034975,-0.088 0.025949,-0.146668 -0.00903,-0.05867 -0.039487,-0.164718 -0.039487,-0.164718 L 0.57676553,19.176723 0.46055989,19.014261 0.37255952,18.867593 0.31050797,18.705131 c 0,0 -0.042872,-0.205334 -0.0406156,-0.301232 0.002256,-0.0959 0.0270771,-0.27077 0.0270771,-0.27077 l 0.0665644,-0.187283 0.0755901,-0.127488 -0.0315899,0.153436 -0.009026,0.07672 -0.003385,0.0959 0.007897,0.08349 0.0327181,0.118461 0.0518977,0.101539 0.1204244,0.173444 c 0,0 0.1691261,0.121261 0.2489026,0.140407 0.079776,0.01915 0.30953293,0.102114 0.30953293,0.102114 l 0.2935776,0.127642 0.2042277,0.140407 c 0,0 0.1116871,0.127642 0.1116871,0.178699 0,0.05106 0.027705,0.09796 0.011346,0.187651 -0.016359,0.08969 -0.04118,0.174308 -0.04118,0.174308 l -0.055282,0.122411 -0.00677,0.01749 0.037795,-0.03385 0.080103,-0.09985 0.066,-0.112822 0.042308,-0.08969 0.03159,-0.103231 0.014103,-0.05472 -0.00112,-0.09082 -0.00282,-0.05867 -0.00621,-0.04964 -0.01918,-0.05867 -0.046257,-0.09421 -0.050769,-0.08123 -0.050205,-0.07503 -0.045693,-0.0801 -0.041744,-0.09251 -0.037231,-0.100974 c 0,0 -0.029333,-0.100411 -0.028769,-0.14836 5.622e-4,-0.04795 0.00226,-0.144411 0.00226,-0.144411 l 0.015231,-0.09364 0.046257,-0.09646 0.052462,-0.100411 0.086308,-0.110565 0.064308,-0.07333 -0.00112,0.10718 v 0.05416 l 0.00282,0.03892 0.00395,0.0299 0.033846,0.08687 0.058667,0.07954 0.049077,0.04795 0.089129,0.04569 0.093641,0.02764 0.085744,0.0079 0.2166163,0.01354 0.1156415,0.02369 0.1032313,0.04118 0.093641,0.05641 0.086872,0.07841 0.058667,0.07841 0.05359,0.121283 0.015231,0.06374 5.621e-4,0.08349 -0.00338,0.05359 -0.015231,0.03949 0.00733,0.0056 0.07841,-0.07615 0.068821,-0.088 0.05359,-0.06882 0.047949,-0.107744 0.023128,-0.06826 0.0079,-0.0502 0.00508,-0.05472 -0.00282,-0.09026 -0.022,-0.09872 -0.021436,-0.06939 -0.00959,-0.05867 0.00282,-0.103232 0.00451,-0.03611 0.023128,-0.08123 0.037795,-0.06656 0.037231,-0.05698 0.040616,-0.06036 0.07559,-0.0739 0.088,-0.07897 0.05641,-0.04287 -0.011846,0.06431 -0.00846,0.05528 -0.00508,0.04626 -0.00395,0.08631 0.00733,0.09815 0.018615,0.09308 0.032718,0.07897 0.044564,0.07615 0.086308,0.0801 0.073898,0.04626 0.1365134,0.05528 0.118462,0.06092 0.093642,0.06939 0.080667,0.07672 0.063744,0.08292 0.066,0.139898 0.020872,0.104924 -0.00282,0.07954 -0.013539,0.08067 -0.042872,0.103795 -0.041179,0.06656 -0.018616,0.03723 -0.00733,0.04061 0.00226,0.022 0.014667,0.01241 0.033282,0.01241 0.023128,-0.0022 0.033282,-0.0073 0.062616,-0.02821 0.071077,-0.04569 0.1154296,-0.119012 0.102114,-0.132429 0.108496,-0.202633 0.065417,-0.177103 0.063821,0.165935 0.065417,0.140406 0.1196647,0.172317 0.07499,0.0718 0.078181,0.04308 0.111687,0.02234 0.1158133,6.55e-4 0.082924,-0.02482 0.1336927,-0.06205 0.1314364,-0.111129 0.059795,-0.07672 0.074462,-0.121847 0.025948,-0.114513 0.012406,-0.152308 -0.014104,-0.07333 -0.022564,-0.110564 -0.053587,-0.134257 -0.089693,-0.146103 -0.104359,-0.134257 -0.06318,-0.06656 -0.084052,-0.07672 -0.040051,-0.03271 -0.00115,-0.01015 0.042873,0.01636 0.1150775,0.04344 0.1218466,0.05303 0.1410262,0.06826 0.2436932,0.162462 0.1748726,0.137642 0.093078,0.102667 0.083488,0.117334 0.054718,0.102667 0.029899,0.07728 0.024256,0.103795 0.00677,0.04343 0.00115,0.119026 0.00846,0.115077 0.023126,0.09195 0.023126,0.0598 0.055846,0.07503 0.071641,0.06092 0.049079,0.02482 0.058103,0.02538 0.098154,0.01072 0.1037952,-0.0073 0.09477,-0.03836 0.090256,-0.06939 0.058667,-0.110565 0.020872,-0.05697 0.00585,-0.09644 -0.036695,-0.191463 -0.06781,-0.153171 -0.047867,-0.07659 0.019147,-8.18e-4 0.112485,0.04068 0.1228557,0.07659 0.1284405,0.111687 0.087754,0.104507 0.055843,0.07579 0.053451,0.07579 0.068603,0.06275 0.1207184,0.06713 0.058667,0.01749 0.097591,0.0079 0.07559,-0.0056 0.080103,-0.022 0.088,-0.05528 0.050771,-0.05528 0.033845,-0.07559 0.017488,-0.06656 -0.00169,-0.103232 -0.00903,-0.04682 -0.035537,-0.111698 -0.039489,-0.107744 -0.015233,-0.06205 -0.00677,-0.05246 -0.00169,-0.07051 0.00338,-0.08349 0.017488,-0.07446 0.019742,-0.06431 0.045695,-0.08969 0.063744,-0.08631 0.06318,-0.07108 0.056411,-0.05133 0.068821,-0.05754 0.07277,-0.05585 0.094205,-0.05923 -0.00621,0.02087 -0.036667,0.04682 -0.033845,0.05923 -0.023693,0.05133 -0.00903,0.02143 -0.014666,0.04795 -0.012412,0.05415 -0.00224,0.07785 0.010152,0.100975 0.040051,0.121846 0.063743,0.125232 0.1083084,0.163026 0.054155,0.109437 0.041181,0.103231 0.025385,0.09477 0.014104,0.07785 0.00508,0.09646 v 0.07672 l -0.019742,0.09251 -0.019742,0.04174 0.1032314,-0.0034 0.1111286,-0.01805 0.073898,-0.02482 0.06713,-0.03949 0.05923,-0.05359 0.03272,-0.03836 0.03102,-0.05133 0.02426,-0.05923 0.01015,-0.06769 0.009,-0.05472 0.022,-0.01862 -0.0041,2.296915 -9.99439994,-0.0032 0.0159553,-1.783803 z"
         id="path3" /><path
         style="fill:#fdc60d;fill-opacity:1;stroke-width:0.915642;stroke-linecap:square"
         d="m 21.389775,19.318878 -0.151594,0.230154 c 0,0 -0.151592,0.18277 -0.200366,0.209847 -0.04877,0.02708 -0.162139,0.101539 -0.162139,0.101539 l -0.156867,0.05528 H 20.6094 l -0.138412,-0.0361 -0.101499,-0.08123 -0.04877,-0.108308 c 0,0 -0.04086,-0.088 -0.03032,-0.146668 0.01052,-0.05867 0.04614,-0.164718 0.04614,-0.164718 l 0.131811,-0.201951 0.135776,-0.162462 0.102819,-0.146668 0.0725,-0.162462 c 0,0 0.05009,-0.205334 0.04746,-0.301232 -0.0027,-0.0959 -0.03164,-0.27077 -0.03164,-0.27077 l -0.07777,-0.187283 -0.08832,-0.127488 0.03691,0.153436 0.01052,0.07672 0.004,0.0959 -0.0092,0.08349 -0.03823,0.118461 -0.06064,0.101539 -0.140704,0.173444 c 0,0 -0.197607,0.121261 -0.290819,0.140407 -0.09322,0.01915 -0.36166,0.102114 -0.36166,0.102114 l -0.343018,0.127642 -0.238621,0.140407 c 0,0 -0.130496,0.127642 -0.130496,0.178699 0,0.05106 -0.03236,0.09796 -0.01326,0.187651 0.01911,0.08969 0.04811,0.174308 0.04811,0.174308 l 0.06459,0.122411 0.0079,0.01749 -0.04416,-0.03385 -0.09359,-0.09985 -0.07711,-0.112822 -0.04943,-0.08969 -0.03691,-0.103231 -0.01647,-0.05472 0.0013,-0.09082 0.0033,-0.05867 0.0072,-0.04964 0.02241,-0.05867 0.05405,-0.09421 0.05932,-0.08123 0.05867,-0.07503 0.05338,-0.0801 0.04877,-0.09251 0.0435,-0.100974 c 0,0 0.03427,-0.100411 0.03362,-0.14836 -6.56e-4,-0.04795 -0.0027,-0.144411 -0.0027,-0.144411 l -0.01779,-0.09364 -0.05405,-0.09646 -0.0613,-0.100411 -0.100845,-0.110565 -0.07514,-0.07333 0.0013,0.10718 v 0.05416 l -0.0033,0.03892 -0.0047,0.0299 -0.03955,0.08687 -0.06855,0.07954 -0.05735,0.04795 -0.10414,0.04569 -0.109409,0.02764 -0.100179,0.0079 -0.253096,0.01354 -0.135116,0.02369 -0.120617,0.04118 -0.10941,0.05641 -0.101499,0.07841 -0.06855,0.07841 -0.06262,0.121283 -0.01779,0.06374 -6.56e-4,0.08349 0.004,0.05359 0.01779,0.03949 -0.0085,0.0056 -0.09162,-0.07615 -0.08041,-0.088 -0.06262,-0.06882 -0.05602,-0.107744 -0.02702,-0.06826 -0.0092,-0.0502 -0.006,-0.05472 0.0033,-0.09026 0.0257,-0.09872 0.02505,-0.06939 0.01122,-0.05867 -0.0033,-0.103232 -0.0053,-0.03611 -0.02702,-0.08123 -0.04417,-0.06656 -0.0435,-0.05698 -0.04746,-0.06036 -0.08832,-0.0739 -0.102819,-0.07897 -0.06591,-0.04287 0.01385,0.06431 0.0099,0.05528 0.006,0.04626 0.0047,0.08631 -0.0085,0.09815 -0.02174,0.09308 -0.03823,0.07897 -0.05206,0.07615 -0.100845,0.0801 -0.08635,0.04626 -0.159504,0.05528 -0.138412,0.06092 -0.109409,0.06939 -0.09426,0.07672 -0.07447,0.08292 -0.07712,0.139898 -0.02438,0.104924 0.0033,0.07954 0.01582,0.08067 0.05009,0.103795 0.04811,0.06656 0.02176,0.03723 0.0085,0.04061 -0.0027,0.022 -0.01714,0.01241 -0.03888,0.01241 -0.02703,-0.0022 -0.03889,-0.0073 -0.07316,-0.02821 -0.08305,-0.04569 -0.134869,-0.119012 -0.119311,-0.132429 -0.126767,-0.202633 -0.07644,-0.177103 -0.07457,0.165935 -0.07644,0.140406 -0.139817,0.172317 -0.08762,0.0718 -0.09135,0.04308 -0.130495,0.02234 -0.135317,6.55e-4 -0.09688,-0.02482 -0.156208,-0.06205 -0.153571,-0.111129 -0.06986,-0.07672 -0.087,-0.121847 -0.03032,-0.114513 -0.0145,-0.152308 0.01647,-0.07333 0.02636,-0.110564 0.06261,-0.134257 0.104794,-0.146103 0.121934,-0.134257 0.07382,-0.06656 0.0982,-0.07672 0.0468,-0.03271 0.0013,-0.01015 -0.05009,0.01636 -0.134456,0.04344 -0.142367,0.05303 -0.164775,0.06826 -0.284732,0.162462 -0.204323,0.137642 -0.108755,0.102667 -0.09755,0.117334 -0.06393,0.102667 -0.03494,0.07728 -0.02834,0.103795 -0.0079,0.04343 -0.0013,0.119026 -0.0099,0.115077 -0.02703,0.09195 -0.02703,0.0598 -0.06526,0.07503 -0.0837,0.06092 -0.05735,0.02482 -0.06788,0.02538 -0.114679,0.01072 -0.121275,-0.0073 -0.110729,-0.03836 -0.10546,-0.06939 -0.06855,-0.110565 -0.02438,-0.05697 -0.0069,-0.09644 0.04287,-0.191463 0.07923,-0.153171 0.05593,-0.07659 -0.02238,-8.18e-4 -0.131428,0.04068 -0.143545,0.07659 -0.150071,0.111687 -0.102527,0.104507 -0.06524,0.07579 -0.06245,0.07579 -0.08015,0.06275 -0.141048,0.06713 -0.06855,0.01749 -0.114024,0.0079 -0.08832,-0.0056 -0.09359,-0.022 -0.10282,-0.05528 -0.05932,-0.05528 -0.03954,-0.07559 -0.02044,-0.06656 0.002,-0.103232 0.01052,-0.04682 0.04153,-0.111698 0.04614,-0.107744 0.01779,-0.06205 0.0079,-0.05246 0.002,-0.07051 -0.004,-0.08349 -0.02044,-0.07446 -0.02306,-0.06431 -0.0534,-0.08969 -0.07447,-0.08631 -0.07382,-0.07108 -0.06591,-0.05133 -0.08041,-0.05754 -0.08502,-0.05585 -0.110064,-0.05923 0.0072,0.02087 0.04285,0.04682 0.03955,0.05923 0.02768,0.05133 0.01051,0.02143 0.01714,0.04795 0.0145,0.05415 0.0026,0.07785 -0.01186,0.100975 -0.04679,0.121846 -0.07447,0.125232 -0.126547,0.163026 -0.06327,0.109437 -0.04811,0.103231 -0.02965,0.09477 -0.01647,0.07785 -0.006,0.09646 v 0.07672 l 0.02306,0.09251 0.02307,0.04174 -0.120617,-0.0034 -0.129843,-0.01805 -0.08634,-0.02482 -0.07843,-0.03949 -0.06921,-0.05359 -0.03823,-0.03836 -0.03624,-0.05133 -0.02835,-0.05923 -0.01186,-0.06769 -0.01052,-0.05472 -0.02571,-0.01862 0.0048,2.296915 11.67751,-0.0032 -0.01864,-1.783803 z"
         id="path4" /><path
         style="fill:#fdc60d;fill-opacity:1;stroke-width:0.856938;stroke-linecap:square"
         d="m 19.13383,19.318878 0.132779,0.230154 c 0,0 0.132778,0.18277 0.175499,0.209847 0.04272,0.02708 0.142015,0.101539 0.142015,0.101539 l 0.137398,0.05528 h 0.09583 l 0.121233,-0.0361 0.0889,-0.08123 0.04272,-0.108308 c 0,0 0.03579,-0.088 0.02656,-0.146668 -0.0092,-0.05867 -0.04041,-0.164718 -0.04041,-0.164718 l -0.115452,-0.201951 -0.118924,-0.162462 -0.09006,-0.146668 -0.0635,-0.162462 c 0,0 -0.04387,-0.205334 -0.04157,-0.301232 0.0024,-0.0959 0.02771,-0.27077 0.02771,-0.27077 l 0.06812,-0.187283 0.07736,-0.127488 -0.03233,0.153436 -0.0092,0.07672 -0.0035,0.0959 0.0081,0.08349 0.03349,0.118461 0.05311,0.101539 0.123241,0.173444 c 0,0 0.173082,0.121261 0.254724,0.140407 0.08165,0.01915 0.316773,0.102114 0.316773,0.102114 l 0.300445,0.127642 0.209005,0.140407 c 0,0 0.114299,0.127642 0.114299,0.178699 0,0.05106 0.02835,0.09796 0.01162,0.187651 -0.01674,0.08969 -0.04214,0.174308 -0.04214,0.174308 l -0.05657,0.122411 -0.007,0.01749 0.03868,-0.03385 0.08197,-0.09985 0.06754,-0.112822 0.0433,-0.08969 0.03233,-0.103231 0.01443,-0.05472 -0.0011,-0.09082 -0.0029,-0.05867 -0.0063,-0.04964 -0.01963,-0.05867 -0.04734,-0.09421 -0.05196,-0.08123 -0.05138,-0.07503 -0.04676,-0.0801 -0.04272,-0.09251 -0.0381,-0.100974 c 0,0 -0.03002,-0.100411 -0.02944,-0.14836 5.75e-4,-0.04795 0.0024,-0.144411 0.0024,-0.144411 l 0.01559,-0.09364 0.04734,-0.09646 0.05369,-0.100411 0.08833,-0.110565 0.06582,-0.07333 -0.0011,0.10718 v 0.05416 l 0.0029,0.03892 0.0041,0.0299 0.03464,0.08687 0.06004,0.07954 0.05023,0.04795 0.09122,0.04569 0.09583,0.02764 0.08775,0.0079 0.221683,0.01354 0.118347,0.02369 0.105646,0.04118 0.09583,0.05641 0.0889,0.07841 0.06004,0.07841 0.05484,0.121283 0.01559,0.06374 5.75e-4,0.08349 -0.0035,0.05359 -0.01559,0.03949 0.0075,0.0056 0.08024,-0.07615 0.07043,-0.088 0.05484,-0.06882 0.04907,-0.107744 0.02367,-0.06826 0.0081,-0.0502 0.0052,-0.05472 -0.0029,-0.09026 -0.02251,-0.09872 -0.02194,-0.06939 -0.0098,-0.05867 0.0029,-0.103232 0.0046,-0.03611 0.02367,-0.08123 0.03868,-0.06656 0.0381,-0.05698 0.04157,-0.06036 0.07736,-0.0739 0.09006,-0.07897 0.05773,-0.04287 -0.01213,0.06431 -0.0087,0.05528 -0.0052,0.04626 -0.0041,0.08631 0.0075,0.09815 0.01905,0.09308 0.03349,0.07897 0.0456,0.07615 0.08833,0.0801 0.07563,0.04626 0.139707,0.05528 0.121233,0.06092 0.09583,0.06939 0.08256,0.07672 0.06523,0.08292 0.06754,0.139898 0.02136,0.104924 -0.0029,0.07954 -0.01386,0.08067 -0.04387,0.103795 -0.04214,0.06656 -0.01906,0.03723 -0.0075,0.04061 0.0024,0.022 0.01501,0.01241 0.03406,0.01241 0.02367,-0.0022 0.03406,-0.0073 0.06408,-0.02821 0.07274,-0.04569 0.11813,-0.119012 0.104503,-0.132429 0.111033,-0.202633 0.06695,-0.177103 0.06531,0.165935 0.06695,0.140406 0.122464,0.172317 0.07674,0.0718 0.08001,0.04308 0.114299,0.02234 0.118522,6.55e-4 0.08486,-0.02482 0.13682,-0.06205 0.134511,-0.111129 0.06119,-0.07672 0.0762,-0.121847 0.02656,-0.114513 0.0127,-0.152308 -0.01443,-0.07333 -0.02309,-0.110564 -0.05484,-0.134257 -0.09179,-0.146103 -0.1068,-0.134257 -0.06466,-0.06656 -0.08602,-0.07672 -0.04099,-0.03271 -0.0011,-0.01015 0.04387,0.01636 0.117769,0.04344 0.124697,0.05303 0.144324,0.06826 0.249393,0.162462 0.178963,0.137642 0.09526,0.102667 0.08544,0.117334 0.056,0.102667 0.0306,0.07728 0.02483,0.103795 0.007,0.04343 0.0011,0.119026 0.0087,0.115077 0.02367,0.09195 0.02367,0.0598 0.05716,0.07503 0.07332,0.06092 0.05023,0.02482 0.05946,0.02538 0.100446,0.01072 0.106223,-0.0073 0.09699,-0.03836 0.09237,-0.06939 0.06004,-0.110565 0.02136,-0.05697 0.006,-0.09644 -0.03755,-0.191463 -0.0694,-0.153171 -0.04899,-0.07659 0.0196,-8.18e-4 0.115116,0.04068 0.125728,0.07659 0.131445,0.111687 0.0898,0.104507 0.05715,0.07579 0.0547,0.07579 0.07021,0.06275 0.123542,0.06713 0.06004,0.01749 0.09987,0.0079 0.07736,-0.0056 0.08197,-0.022 0.09006,-0.05528 0.05196,-0.05528 0.03463,-0.07559 0.0179,-0.06656 -0.0017,-0.103232 -0.0092,-0.04682 -0.03637,-0.111698 -0.04041,-0.107744 -0.01559,-0.06205 -0.007,-0.05246 -0.0017,-0.07051 0.0035,-0.08349 0.0179,-0.07446 0.0202,-0.06431 0.04677,-0.08969 0.06523,-0.08631 0.06466,-0.07108 0.05773,-0.05133 0.07043,-0.05754 0.07447,-0.05585 0.0964,-0.05923 -0.0063,0.02087 -0.03753,0.04682 -0.03464,0.05923 -0.02425,0.05133 -0.0092,0.02143 -0.01501,0.04795 -0.0127,0.05415 -0.0023,0.07785 0.01039,0.100975 0.04099,0.121846 0.06523,0.125232 0.110841,0.163026 0.05542,0.109437 0.04214,0.103231 0.02597,0.09477 0.01443,0.07785 0.0052,0.09646 v 0.07672 l -0.0202,0.09251 -0.0202,0.04174 0.105647,-0.0034 0.113727,-0.01805 0.07563,-0.02482 0.0687,-0.03949 0.06062,-0.05359 0.03349,-0.03836 0.03175,-0.05133 0.02483,-0.05923 0.01039,-0.06769 0.0092,-0.05472 0.02252,-0.01862 -0.0042,2.296915 -10.228168,-0.0032 0.01632,-1.783803 z"
         id="path5" /><path
         style="fill:#fdc60d;fill-opacity:1;stroke-width:0.893376;stroke-linecap:square"
         d="m 40.408578,19.318878 -0.14431,0.230154 c 0,0 -0.14431,0.18277 -0.19074,0.209847 -0.04643,0.02708 -0.15435,0.101539 -0.15435,0.101539 l -0.14933,0.05528 h -0.104153 l -0.131762,-0.0361 -0.09662,-0.08123 -0.04643,-0.108308 c 0,0 -0.0389,-0.088 -0.02886,-0.146668 0.01001,-0.05867 0.04392,-0.164718 0.04392,-0.164718 l 0.125479,-0.201951 0.129252,-0.162462 0.09788,-0.146668 0.06902,-0.162462 c 0,0 0.04768,-0.205334 0.04518,-0.301232 -0.0026,-0.0959 -0.03012,-0.27077 -0.03012,-0.27077 l -0.07403,-0.187283 -0.08408,-0.127488 0.03514,0.153436 0.01001,0.07672 0.0038,0.0959 -0.0088,0.08349 -0.03639,0.118461 -0.05773,0.101539 -0.133944,0.173444 c 0,0 -0.188114,0.121261 -0.276847,0.140407 -0.08874,0.01915 -0.344285,0.102114 -0.344285,0.102114 l -0.326538,0.127642 -0.227156,0.140407 c 0,0 -0.124226,0.127642 -0.124226,0.178699 0,0.05106 -0.03081,0.09796 -0.01262,0.187651 0.0182,0.08969 0.0458,0.174308 0.0458,0.174308 l 0.06149,0.122411 0.0076,0.01749 -0.04204,-0.03385 -0.08909,-0.09985 -0.07341,-0.112822 -0.04706,-0.08969 -0.03514,-0.103231 -0.01568,-0.05472 0.0012,-0.09082 0.0031,-0.05867 0.0069,-0.04964 0.02133,-0.05867 0.05145,-0.09421 0.05647,-0.08123 0.05585,-0.07503 0.05082,-0.0801 0.04643,-0.09251 0.04141,-0.100974 c 0,0 0.03262,-0.100411 0.032,-0.14836 -6.26e-4,-0.04795 -0.0026,-0.144411 -0.0026,-0.144411 l -0.01694,-0.09364 -0.05145,-0.09646 -0.05835,-0.100411 -0.096,-0.110565 -0.07153,-0.07333 0.0012,0.10718 v 0.05416 l -0.0031,0.03892 -0.0044,0.0299 -0.03765,0.08687 -0.06526,0.07954 -0.05459,0.04795 -0.09914,0.04569 -0.104153,0.02764 -0.09537,0.0079 -0.240935,0.01354 -0.128626,0.02369 -0.114821,0.04118 -0.104153,0.05641 -0.09662,0.07841 -0.06526,0.07841 -0.05961,0.121283 -0.01694,0.06374 -6.25e-4,0.08349 0.0038,0.05359 0.01694,0.03949 -0.0081,0.0056 -0.08721,-0.07615 -0.07655,-0.088 -0.05961,-0.06882 -0.05333,-0.107744 -0.02573,-0.06826 -0.0088,-0.0502 -0.0057,-0.05472 0.0031,-0.09026 0.02447,-0.09872 0.02385,-0.06939 0.01068,-0.05867 -0.0031,-0.103232 -0.005,-0.03611 -0.02573,-0.08123 -0.04204,-0.06656 -0.04141,-0.05698 -0.04518,-0.06036 -0.08408,-0.0739 -0.09788,-0.07897 -0.06274,-0.04287 0.01318,0.06431 0.0095,0.05528 0.0057,0.04626 0.0044,0.08631 -0.0081,0.09815 -0.0207,0.09308 -0.03639,0.07897 -0.04956,0.07615 -0.096,0.0801 -0.0822,0.04626 -0.15184,0.05528 -0.131762,0.06092 -0.104153,0.06939 -0.08973,0.07672 -0.0709,0.08292 -0.07341,0.139898 -0.02321,0.104924 0.0031,0.07954 0.01506,0.08067 0.04768,0.103795 0.0458,0.06656 0.02071,0.03723 0.0081,0.04061 -0.0026,0.022 -0.01632,0.01241 -0.03702,0.01241 -0.02573,-0.0022 -0.03702,-0.0073 -0.06965,-0.02821 -0.07906,-0.04569 -0.128389,-0.119012 -0.113579,-0.132429 -0.120676,-0.202633 -0.07276,-0.177103 -0.07099,0.165935 -0.07276,0.140406 -0.1331,0.172317 -0.08341,0.0718 -0.08696,0.04308 -0.124226,0.02234 -0.128816,6.55e-4 -0.09223,-0.02482 -0.148703,-0.06205 -0.146193,-0.111129 -0.0665,-0.07672 -0.08282,-0.121847 -0.02886,-0.114513 -0.0138,-0.152308 0.01568,-0.07333 0.02509,-0.110564 0.05961,-0.134257 0.09976,-0.146103 0.116075,-0.134257 0.07027,-0.06656 0.09349,-0.07672 0.04455,-0.03271 0.0012,-0.01015 -0.04768,0.01636 -0.127997,0.04344 -0.135527,0.05303 -0.156859,0.06826 -0.271052,0.162462 -0.194506,0.137642 -0.10353,0.102667 -0.09286,0.117334 -0.06086,0.102667 -0.03326,0.07728 -0.02698,0.103795 -0.0076,0.04343 -0.0012,0.119026 -0.0095,0.115077 -0.02573,0.09195 -0.02573,0.0598 -0.06212,0.07503 -0.07968,0.06092 -0.05459,0.02482 -0.06462,0.02538 -0.109169,0.01072 -0.115448,-0.0073 -0.10541,-0.03836 -0.100394,-0.06939 -0.06526,-0.110565 -0.02321,-0.05697 -0.0066,-0.09644 0.04081,-0.191463 0.07542,-0.153171 0.05325,-0.07659 -0.0213,-8.18e-4 -0.125114,0.04068 -0.136648,0.07659 -0.142861,0.111687 -0.0976,0.104507 -0.06211,0.07579 -0.05945,0.07579 -0.0763,0.06275 -0.134272,0.06713 -0.06526,0.01749 -0.108546,0.0079 -0.08408,-0.0056 -0.08909,-0.022 -0.09788,-0.05528 -0.05647,-0.05528 -0.03764,-0.07559 -0.01945,-0.06656 0.0019,-0.103232 0.01001,-0.04682 0.03953,-0.111698 0.04392,-0.107744 0.01694,-0.06205 0.0076,-0.05246 0.0019,-0.07051 -0.0038,-0.08349 -0.01945,-0.07446 -0.02196,-0.06431 -0.05083,-0.08969 -0.0709,-0.08631 -0.07027,-0.07108 -0.06274,-0.05133 -0.07655,-0.05754 -0.08094,-0.05585 -0.104776,-0.05923 0.0069,0.02087 0.04079,0.04682 0.03765,0.05923 0.02635,0.05133 0.01001,0.02143 0.01632,0.04795 0.0138,0.05415 0.0024,0.07785 -0.01129,0.100975 -0.04455,0.121846 -0.0709,0.125232 -0.120468,0.163026 -0.06023,0.109437 -0.0458,0.103231 -0.02823,0.09477 -0.01568,0.07785 -0.0057,0.09646 v 0.07672 l 0.02196,0.09251 0.02196,0.04174 -0.114822,-0.0034 -0.123604,-0.01805 -0.0822,-0.02482 -0.07467,-0.03949 -0.06588,-0.05359 -0.03639,-0.03836 -0.0345,-0.05133 -0.02698,-0.05923 -0.01129,-0.06769 -0.01001,-0.05472 -0.02447,-0.01862 0.0046,2.296915 11.116474,-0.0032 -0.01774,-1.783803 z"
         id="path6" /></g></g></svg>
