<?xml version="1.0" encoding="UTF-8" standalone="no"?>
<!-- Created with Inkscape (http://www.inkscape.org/) -->

<svg
   width="40mm"
   height="40mm"
   viewBox="0 0 40 40"
   version="1.1"
   id="svg5"
   xml:space="preserve"
   inkscape:version="1.3.1 (91b66b0783, 2023-11-16)"
   sodipodi:docname="body.svg"
   xmlns:inkscape="http://www.inkscape.org/namespaces/inkscape"
   xmlns:sodipodi="http://sodipodi.sourceforge.net/DTD/sodipodi-0.dtd"
   xmlns="http://www.w3.org/2000/svg"
   xmlns:svg="http://www.w3.org/2000/svg"><sodipodi:namedview
     id="namedview7"
     pagecolor="#ffffff"
     bordercolor="#000000"
     borderopacity="0.25"
     inkscape:showpageshadow="2"
     inkscape:pageopacity="0.0"
     inkscape:pagecheckerboard="0"
     inkscape:deskcolor="#d1d1d1"
     inkscape:document-units="mm"
     showgrid="false"
     inkscape:zoom="4"
     inkscape:cx="100.25"
     inkscape:cy="63.125"
     inkscape:window-width="1920"
     inkscape:window-height="1094"
     inkscape:window-x="-11"
     inkscape:window-y="-11"
     inkscape:window-maximized="1"
     inkscape:current-layer="layer1"
     showguides="true" /><defs
     id="defs2"><inkscape:path-effect
       effect="bspline"
       id="path-effect9230"
       is_visible="true"
       lpeversion="1"
       weight="33.333333"
       steps="2"
       helper_size="0"
       apply_no_weight="true"
       apply_with_weight="true"
       only_selected="false"
       uniform="false" /><inkscape:path-effect
       effect="bspline"
       id="path-effect45223"
       is_visible="true"
       lpeversion="1"
       weight="33.333333"
       steps="2"
       helper_size="0"
       apply_no_weight="true"
       apply_with_weight="true"
       only_selected="false"
       uniform="false" /><inkscape:path-effect
       effect="bspline"
       id="path-effect45219"
       is_visible="true"
       lpeversion="1"
       weight="33.333333"
       steps="2"
       helper_size="0"
       apply_no_weight="true"
       apply_with_weight="true"
       only_selected="false"
       uniform="false" /><inkscape:path-effect
       effect="bspline"
       id="path-effect37057"
       is_visible="true"
       lpeversion="1"
       weight="33.333333"
       steps="2"
       helper_size="0"
       apply_no_weight="true"
       apply_with_weight="true"
       only_selected="false"
       uniform="false" /><inkscape:path-effect
       effect="bspline"
       id="path-effect35557"
       is_visible="true"
       lpeversion="1"
       weight="33.333333"
       steps="2"
       helper_size="0"
       apply_no_weight="true"
       apply_with_weight="true"
       only_selected="false"
       uniform="false" /><inkscape:path-effect
       effect="bspline"
       id="path-effect30471"
       is_visible="true"
       lpeversion="1"
       weight="33.333333"
       steps="2"
       helper_size="0"
       apply_no_weight="true"
       apply_with_weight="true"
       only_selected="false"
       uniform="false" /><inkscape:path-effect
       effect="bspline"
       id="path-effect8625"
       is_visible="true"
       lpeversion="1"
       weight="33.333333"
       steps="2"
       helper_size="0"
       apply_no_weight="true"
       apply_with_weight="true"
       only_selected="false"
       uniform="false" /><inkscape:path-effect
       effect="bspline"
       id="path-effect5641"
       is_visible="true"
       lpeversion="1"
       weight="33.333333"
       steps="2"
       helper_size="0"
       apply_no_weight="true"
       apply_with_weight="true"
       only_selected="false"
       uniform="false" /></defs><g
     inkscape:label="Layer 1"
     inkscape:groupmode="layer"
     id="layer1"><path
       style="fill:#fd230d;fill-opacity:1;stroke-width:0.575833;stroke-linecap:square"
       d="m -6.301,15.194363 3.0765133,-0.295222 c 0,0 -0.8434075,-0.02112 2.51417257,-0.04706 4.11733763,-0.03181 4.90463963,0.637427 2.54824303,2.113988 -1.90354268,1.192794 -0.95126097,1.327604 1.9530751,0.561588 3.1459967,-0.829754 2.5473885,0.07364 0.6200522,1.04045 -1.9273398,0.966804 1.7523194,0.562342 1.7523194,0.562342 0,0 2.0666218,-0.674552 2.5504108,1.385004 0.4412703,1.87855 -3.2562153,1.774441 -3.2562153,1.774441 l -10.9211069,0.591641 -0.3443249,-3.61572 z"
       id="path1"
       sodipodi:nodetypes="ccsssccscccc" /><g
       id="g1"
       transform="translate(4.465e-4,-1.4871927)"><path
         style="fill:#0d6efd;fill-opacity:1;stroke-width:1.552;stroke-linecap:square"
         id="path17"
         d="m 32.018337,24.742579 c 0.247325,-0.520124 0.563505,-1.002855 0.875986,-1.485227 0.261175,-0.409393 0.536617,-0.80775 0.843769,-1.183902 0.228941,-0.263292 0.455819,-0.528346 0.686557,-0.79007 0.212566,-0.233705 0.431929,-0.461212 0.641268,-0.697818 0.171682,-0.18043 0.337769,-0.366861 0.531188,-0.524454 0.18566,-0.159692 0.376028,-0.313964 0.575085,-0.456674 0.153294,-0.101991 0.316627,-0.188344 0.479986,-0.27309 0.220054,-0.105082 0.447455,-0.195774 0.680233,-0.268412 0.273579,-0.0959 0.560768,-0.129628 0.848156,-0.150117 0.265234,-0.01285 0.530889,-0.01296 0.796375,-0.01502 0.310867,0.0037 0.622035,-0.0061 0.932672,0.0078 0.270587,0.03012 0.543245,0.05926 0.809122,0.119455 0.03626,0.0085 0.135282,0.02828 0.175189,0.04809 0.01889,0.0094 0.06143,0.05601 0.04235,0.04701 -0.04369,-0.02062 -0.08324,-0.04907 -0.124859,-0.07361 0,0 0.70958,-0.68491 0.70958,-0.68491 v 0 c -0.08166,-0.05559 -0.16043,-0.115688 -0.244988,-0.166764 -0.147148,-0.08888 -0.326572,-0.108896 -0.490929,-0.144375 -0.313608,-0.05335 -0.630253,-0.09409 -0.947817,-0.113448 -0.320849,-0.0077 -0.641829,-0.0038 -0.962752,-0.0054 -0.289716,-0.0016 -0.579874,-0.0028 -0.868612,0.02548 -0.354819,0.03399 -0.706704,0.09115 -1.0458,0.204843 -0.275582,0.09496 -0.54951,0.198333 -0.811074,0.32748 -0.202759,0.106971 -0.406239,0.215541 -0.592088,0.350455 -0.210328,0.159367 -0.412811,0.328679 -0.613396,0.500084 -0.220562,0.19127 -0.430075,0.39545 -0.622398,0.61534 -0.206217,0.23538 -0.417941,0.465817 -0.628357,0.697419 -0.245403,0.268391 -0.478469,0.54774 -0.710991,0.827306 -0.324053,0.402691 -0.609012,0.831786 -0.878842,1.272503 -0.327557,0.510477 -0.654643,1.021528 -0.959702,1.545826 z" /><path
         style="fill:#0d6efd;fill-opacity:1;stroke-width:1.552;stroke-linecap:square"
         id="path18"
         d="m 32.109656,25.049342 c 0.329514,-0.0715 0.656767,-0.153166 0.982527,-0.240154 0.436504,-0.09994 0.852295,-0.259935 1.263023,-0.434927 0.07209,-0.03252 0.144127,-0.06518 0.216276,-0.09757 0.07065,-0.03172 0.14301,-0.05983 0.212116,-0.09478 0.157274,-0.07955 0.421476,-0.234433 0.56519,-0.330135 0.189886,-0.126449 0.423767,-0.3064 0.606817,-0.444148 0.615878,-0.508647 1.110675,-1.129198 1.579668,-1.770283 0.368244,-0.530032 0.753189,-1.048504 1.153864,-1.554442 0.263689,-0.325277 0.542118,-0.646498 0.87418,-0.904999 0.1762,-0.137165 0.247462,-0.165457 0.440346,-0.269305 0.327488,-0.162156 0.596943,-0.18208 0.948611,-0.121727 0.102941,0.01468 0.201118,0.04664 0.298622,0.08118 0,0 0.144904,-0.968464 0.144904,-0.968464 v 0 c -0.146841,-0.03658 -0.294245,-0.07053 -0.445524,-0.08347 -0.174805,-0.01386 -0.234378,-0.02444 -0.413234,-0.01371 -0.369303,0.02216 -0.721849,0.130072 -1.045096,0.309399 -0.257442,0.152913 -0.34049,0.18992 -0.577591,0.382762 -0.08705,0.0708 -0.167563,0.149334 -0.249044,0.226479 -0.261218,0.247317 -0.502402,0.51262 -0.730496,0.79073 -0.399571,0.521041 -0.792985,1.046726 -1.168236,1.585685 -0.406442,0.579148 -0.849363,1.140131 -1.404178,1.585612 -0.219697,0.165914 -0.307745,0.239508 -0.539845,0.38671 -0.283327,0.179691 -0.589233,0.317115 -0.89897,0.444041 -0.371483,0.155984 -0.747495,0.299573 -1.141918,0.387604 -0.292161,0.07089 -0.585996,0.146189 -0.885354,0.178594 z" /><path
         style="fill:#0d6efd;fill-opacity:1;stroke-width:1.552;stroke-linecap:square"
         id="path19"
         d="m 33.101713,24.165146 c 0.09324,-0.140614 0.212302,-0.261516 0.328549,-0.383015 0.157666,-0.179039 0.324028,-0.349962 0.486704,-0.524433 0.154604,-0.141616 0.302258,-0.290294 0.458592,-0.430046 0.248348,-0.220297 0.486243,-0.452642 0.725554,-0.682797 0.255225,-0.242995 0.49309,-0.50345 0.749686,-0.74495 0.24162,-0.242189 0.4983,-0.465902 0.762722,-0.682457 0.198334,-0.151638 0.37201,-0.330931 0.551712,-0.503129 0.127844,-0.133842 0.275137,-0.244171 0.426093,-0.349784 0.155969,-0.09477 0.316039,-0.182201 0.473334,-0.27473 0.143071,-0.0588 0.279315,-0.129839 0.415764,-0.202405 0.07663,-0.0352 0.159271,-0.0498 0.238223,-0.07785 0.529314,-0.181896 0.211904,-0.441439 -0.131554,-0.990275 -0.0019,-0.0031 -0.138274,0.01354 -0.170683,0.0174 -0.251383,0.05106 -0.489577,0.139614 -0.719838,0.250987 -0.181319,0.07879 -0.342204,0.194568 -0.5129,0.292376 -0.07322,0.04195 -0.148577,0.08005 -0.222258,0.121181 -0.248134,0.138315 -0.50618,0.257478 -0.755764,0.392967 -0.240408,0.112729 -0.472554,0.242552 -0.698995,0.38103 -0.21328,0.12698 -0.398994,0.287778 -0.574421,0.461991 -0.172378,0.167483 -0.330737,0.347331 -0.488569,0.528307 -0.117411,0.135596 -0.230478,0.27577 -0.337584,0.419677 -0.09864,0.133424 -0.184481,0.275599 -0.283337,0.408834 -0.08277,0.132015 -0.18396,0.249944 -0.27581,0.375398 -0.139033,0.151493 -0.256066,0.320511 -0.380611,0.483672 -0.109709,0.137571 -0.184994,0.297862 -0.289621,0.43886 -0.08704,0.128295 -0.177244,0.254385 -0.269457,0.379002 -0.09897,0.124728 -0.173707,0.261129 -0.232637,0.408694 -0.04948,0.09266 -0.05555,0.204052 -0.108696,0.294458 -0.01082,0.02304 -0.02143,0.04617 -0.03242,0.06913 -0.0016,0.0035 -0.09409,0.201793 -0.07778,0.14803 0.947007,0.655419 0.66267,0.800944 0.918805,0.40875 0.04501,-0.06891 0.100846,-0.134361 0.150228,-0.200441 0.0218,-0.02545 0.06552,-0.08056 0.09562,-0.102169 0.01191,-0.0085 0.02919,-0.0039 0.04316,-0.0083 0.04531,-0.01442 0.07715,-0.03168 0.122516,-0.05269 0.169328,-0.07636 0.337732,-0.156824 0.498565,-0.249982 0.142105,-0.07815 0.280786,-0.163273 0.41471,-0.254719 0.143571,-0.125921 0.285131,-0.254105 0.422863,-0.386545 0.138665,-0.130773 0.279106,-0.259089 0.412826,-0.394958 0.165711,-0.176437 0.346636,-0.336382 0.526246,-0.498315 0.201679,-0.170522 0.398317,-0.347424 0.590238,-0.528904 0.196209,-0.173585 0.378499,-0.362473 0.556842,-0.55422 0.161176,-0.18452 0.296206,-0.389576 0.448476,-0.580999 0.09347,-0.09802 0.158994,-0.218226 0.251468,-0.316593 0.0696,-0.03561 0.115988,-0.123012 0.192069,-0.144207 0.131938,-0.07155 0.242248,-0.174378 0.365109,-0.259082 0.06176,-0.04898 0.260866,-0.18625 0.285269,-0.254222 0.04457,-0.124152 0.06502,-0.255685 0.09752,-0.383527 -0.237064,-0.127657 -0.459554,-0.287191 -0.711194,-0.382972 -0.0454,-0.01728 -0.08842,0.0403 -0.131837,0.06209 -0.141303,0.07093 -0.281813,0.145088 -0.421082,0.219989 -0.2423,0.14634 -0.461893,0.324189 -0.678428,0.505286 -0.373235,0.301605 -0.720495,0.634509 -1.072333,0.960602 -0.372401,0.338089 -0.7547,0.664806 -1.149411,0.976523 -0.235063,0.209365 -0.489455,0.394303 -0.743291,0.579738 -0.208518,0.159134 -0.420812,0.313552 -0.623038,0.48069 -0.161862,0.143683 -0.307427,0.304163 -0.461568,0.455849 -0.081,0.08347 -0.160793,0.166755 -0.234932,0.256468 0,0 0.777018,0.609488 0.777018,0.609488 v 0 c 0.05167,-0.06716 0.114813,-0.123943 0.17141,-0.186851 0.134252,-0.13526 0.257821,-0.281416 0.402185,-0.406364 0.186034,-0.158136 0.387467,-0.297534 0.578311,-0.449757 0.261718,-0.194341 0.522851,-0.389103 0.762008,-0.611418 0.405889,-0.328516 0.793281,-0.678844 1.181502,-1.027872 0.343109,-0.311967 0.688115,-0.623119 1.054785,-0.90741 0.176326,-0.141304 0.353042,-0.283046 0.547481,-0.399195 0.09844,-0.05312 0.198133,-0.102499 0.298942,-0.150983 0.294863,-0.141817 0.208503,0.03233 -0.534712,-0.445627 0.03421,-0.119985 0.06328,-0.241554 0.102616,-0.359956 0.0036,-0.01078 0.0163,-0.01582 0.02474,-0.02341 0.0037,-0.0033 -0.0066,0.0073 -0.01037,0.0105 -0.04012,0.03442 -0.08096,0.0682 -0.124513,0.09822 -0.100206,0.07508 -0.197384,0.15443 -0.307023,0.215785 -0.139477,0.0928 -0.270769,0.197558 -0.387527,0.31818 -0.103912,0.118711 -0.187216,0.251985 -0.28843,0.372993 -0.129672,0.174205 -0.253455,0.353 -0.393168,0.519547 -0.16296,0.176531 -0.331894,0.348235 -0.509961,0.509541 -0.190817,0.174733 -0.383476,0.347423 -0.578561,0.517377 -0.194115,0.173155 -0.38779,0.346512 -0.570257,0.532128 -0.127958,0.130102 -0.265713,0.250022 -0.397984,0.375669 -0.101983,0.09822 -0.207848,0.192098 -0.31239,0.287489 -0.115713,0.07885 -0.237916,0.148348 -0.360305,0.216198 -0.136186,0.07824 -0.277995,0.14753 -0.422521,0.208861 -0.24243,0.108046 -0.435118,0.232057 -0.591931,0.452995 -0.06666,0.08872 -0.135437,0.176061 -0.200813,0.265724 -0.0094,0.01289 -0.01738,0.02676 -0.0265,0.03985 -0.0059,0.0085 -0.02661,0.01838 -0.01852,0.02476 0.260321,0.205554 0.533165,0.394733 0.799748,0.5921 0.05735,-0.102888 0.11016,-0.207813 0.158721,-0.315148 0.05914,-0.12002 0.09794,-0.24503 0.144984,-0.369467 0.03361,-0.08529 0.02658,-0.07837 0.08664,-0.164589 0.01,-0.01436 0.01934,-0.02916 0.02901,-0.04374 0.09498,-0.127335 0.183896,-0.258838 0.275786,-0.388418 0.0988,-0.138451 0.176734,-0.289108 0.275151,-0.427512 0.125,-0.16765 0.249229,-0.335403 0.390776,-0.489725 0.09238,-0.124961 0.193646,-0.243331 0.275095,-0.376164 0.09665,-0.132537 0.18536,-0.270332 0.280673,-0.403787 0.09441,-0.126718 0.193776,-0.250298 0.294259,-0.372182 0.14115,-0.164991 0.285189,-0.326849 0.441868,-0.477455 0.12887,-0.126781 0.268012,-0.239754 0.424166,-0.33192 0.209431,-0.13168 0.426591,-0.251056 0.650076,-0.357202 0.255519,-0.135565 0.516298,-0.260768 0.770004,-0.399719 0.227266,-0.127903 0.447016,-0.269372 0.682749,-0.381246 0.134337,-0.06079 0.279284,-0.117467 0.426882,-0.132595 0.01447,-5.82e-4 0.05672,-0.0074 0.0434,-0.0017 -0.01691,0.0072 -0.04633,0.0229 -0.05474,0.0066 -0.137031,-0.266115 -0.297514,-0.52894 -0.364469,-0.820679 -0.014,-0.06103 0.100261,-0.07505 0.15023,-0.112799 5.29e-4,-4.5e-4 -0.0013,5.82e-4 -0.0021,8.73e-4 -0.0122,0.0043 -0.02439,0.0087 -0.03659,0.01299 -0.128992,0.03581 -0.251777,0.09015 -0.370869,0.150718 -0.141269,0.07977 -0.290602,0.142324 -0.432504,0.221004 -0.177392,0.103174 -0.359198,0.199212 -0.528976,0.31496 -0.19168,0.132333 -0.36934,0.282423 -0.534323,0.447007 -0.160959,0.158918 -0.321249,0.318795 -0.497086,0.461536 -0.275087,0.232818 -0.541817,0.473819 -0.799883,0.725445 -0.255733,0.2444 -0.499377,0.500628 -0.753451,0.74669 -0.231434,0.220545 -0.458833,0.445833 -0.705364,0.649726 -0.181909,0.157607 -0.349988,0.330173 -0.524465,0.495868 -0.155207,0.171073 -0.318775,0.33453 -0.471704,0.507773 -0.137401,0.140409 -0.271545,0.284342 -0.394176,0.437937 z" /><path
         style="fill:#0d6efd;fill-opacity:1;stroke-width:1.552;stroke-linecap:square"
         id="path20"
         d="m 32.653745,25.403066 c 0.212659,-0.0762 0.436388,-0.126583 0.65863,-0.168126 0.252296,-0.05675 0.510373,-0.07877 0.767149,-0.104835 0.30081,-0.02833 0.597894,-0.08238 0.890452,-0.157232 0.188188,-0.04906 0.37741,-0.09707 0.556421,-0.174425 0.0823,-0.03556 0.165286,-0.08006 0.244973,-0.121235 0.213878,-0.11878 0.414091,-0.260098 0.615415,-0.398586 0.03346,-0.02304 0.06648,-0.04674 0.100386,-0.06911 0.0288,-0.019 0.05962,-0.03492 0.08769,-0.05497 0.148986,-0.106413 0.281267,-0.234345 0.41213,-0.361686 0.123376,-0.12147 0.244833,-0.244864 0.366694,-0.367847 0.102762,-0.104251 0.199597,-0.213926 0.290867,-0.328386 0.122217,-0.145697 0.212501,-0.314166 0.298919,-0.482599 0.07549,-0.17288 0.17839,-0.330624 0.27383,-0.492558 0.07744,-0.14407 0.142621,-0.294086 0.21557,-0.440439 0.08668,-0.191944 0.18784,-0.376749 0.278656,-0.566599 0.05572,-0.14309 0.150971,-0.264971 0.245422,-0.384405 0.114689,-0.127941 0.232381,-0.251968 0.364472,-0.362136 0.172468,-0.135532 0.33946,-0.277425 0.509667,-0.41578 0.171029,-0.145091 0.357288,-0.270302 0.543586,-0.394566 0.165092,-0.12454 0.351033,-0.216257 0.5325,-0.313857 0.121206,-0.05839 0.236432,-0.13951 0.372261,-0.156863 0.121693,-0.0068 0.241152,-0.03143 0.362437,-0.04317 0.02936,-0.0066 0.05873,-0.01311 0.08809,-0.01966 0,0 -0.286366,-0.94848 -0.286366,-0.94848 v 0 c -0.0038,5.03e-4 -0.0076,0.001 -0.01143,0.0015 -0.157424,0.02217 -0.315492,0.04286 -0.4709,0.07645 -0.200906,0.05975 -0.386755,0.151171 -0.568476,0.255239 -0.204634,0.111976 -0.411501,0.220939 -0.599834,0.359692 -0.208193,0.139554 -0.410091,0.288371 -0.603859,0.447435 -0.178181,0.143702 -0.356552,0.286932 -0.534463,0.430912 -0.171424,0.15173 -0.332386,0.314711 -0.481193,0.488805 -0.133601,0.172565 -0.264946,0.351663 -0.348432,0.554625 -0.08202,0.181208 -0.179435,0.355477 -0.264031,0.535558 -0.07036,0.132278 -0.133257,0.26792 -0.196283,0.403798 -0.09854,0.17562 -0.20846,0.345093 -0.292574,0.528631 -0.06097,0.116471 -0.121684,0.234884 -0.208338,0.334516 -0.07255,0.09087 -0.153157,0.175279 -0.233035,0.25966 -0.115265,0.11928 -0.229049,0.240008 -0.346186,0.357464 -0.149791,0.145812 -0.304961,0.281621 -0.486799,0.387268 -0.169304,0.115811 -0.338761,0.232384 -0.517093,0.333922 -0.0034,0.0017 -0.152578,0.07527 -0.17113,0.08326 -0.145185,0.06249 -0.301974,0.09384 -0.454192,0.13361 -0.251886,0.06288 -0.507812,0.105874 -0.76681,0.126319 -0.284083,0.02972 -0.568748,0.05936 -0.847164,0.12584 -0.258146,0.05429 -0.515107,0.11552 -0.769525,0.185201 z" /><path
         style="fill:#0d6efd;fill-opacity:1;stroke-width:1.552;stroke-linecap:square"
         id="path21"
         d="m 35.06439,24.394017 c 0.268655,-0.174912 0.516361,-0.378321 0.763479,-0.582013 0.333724,-0.263934 0.658995,-0.538232 0.982988,-0.813946 0.227534,-0.195495 0.455858,-0.38975 0.668954,-0.601065 0.157329,-0.1531 0.31541,-0.30416 0.457361,-0.471875 0,0 -0.768604,-0.61093 -0.768604,-0.61093 v 0 c -0.115943,0.148488 -0.258704,0.270986 -0.391408,0.403971 -0.201573,0.195095 -0.407636,0.385088 -0.618948,0.569672 -0.315315,0.27314 -0.634317,0.541832 -0.961504,0.800711 -0.230134,0.182825 -0.460886,0.365466 -0.720664,0.505153 z" /><path
         style="fill:#0d6efd;fill-opacity:1;stroke-width:1.552;stroke-linecap:square"
         id="path22"
         d="m 32.880472,25.006281 c -0.135644,-0.128691 -0.286936,-0.238812 -0.428559,-0.360662 -0.08715,-0.08131 -0.18909,-0.149424 -0.264771,-0.242502 -0.02085,-0.02555 -0.02522,-0.05431 -0.02853,-0.08611 -0.005,-0.111731 0.0055,-0.0516 -0.02724,0.05057 -0.0097,0.03016 -0.02598,0.05151 -0.04299,0.07715 0.06293,-0.03728 0.121957,-0.08229 0.186095,-0.118147 0.185158,-0.05271 0.45529,-0.412916 0.326935,-0.59251 -0.143333,-0.200552 -0.421243,-0.256155 -0.631865,-0.384232 -0.16274,0.03855 -0.293499,0.145054 -0.427987,0.238047 -0.187772,0.128496 -0.312518,0.311863 -0.397354,0.519189 -0.07027,0.209005 -0.06503,0.347166 0.02482,0.553167 0.02093,0.04798 0.08849,0.119026 0.118158,0.153534 0.01243,6.61e-4 0.0172,0.02323 0.02951,0.02238 0.04811,-0.0033 -0.106516,-0.04325 -0.0195,-0.03982 0.01003,3.97e-4 0.01098,0.01677 0.01622,0.02532 0.01476,0.02404 0.02919,0.04829 0.04379,0.07243 0.04533,0.06698 0.09911,0.127215 0.160182,0.180101 0.01286,0.01114 0.04688,0.04019 0.04954,0.03674 0.0024,-0.0032 -0.0032,-0.0075 -0.0048,-0.01128 -0.003,-0.0066 -0.01312,-0.02574 -0.009,-0.0198 0.06878,0.09819 0.123685,0.202971 0.230569,0.267299 0.173307,0.166282 0.38065,0.250958 0.611081,0.294625 0.226949,0.04335 0.384821,0.0044 0.59004,-0.101651 0.175498,-0.101591 0.311229,-0.248841 0.424833,-0.414236 0.04753,-0.0781 0.08639,-0.160794 0.124024,-0.243947 0.02732,-0.06036 0.0096,-0.0437 0.0294,-0.06122 0.08036,-0.114705 -0.04448,0.04466 0.03927,-0.06013 0.0067,-0.0084 -0.0073,0.02179 -0.01598,0.02821 -0.05571,0.04112 -0.113292,0.07965 -0.169937,0.119476 -0.203959,-0.07097 -0.407921,-0.141938 -0.61188,-0.212908 0,0 0.871519,-0.486491 0.871519,-0.486491 v 0 c -0.208021,-0.07661 -0.416042,-0.153218 -0.62406,-0.229827 -0.06321,0.04185 -0.128577,0.08061 -0.189629,0.125544 -0.06396,0.04708 -0.129583,0.174758 -0.17103,0.242713 -0.03953,0.07732 -0.07613,0.156935 -0.109497,0.236741 -0.02339,0.04199 -0.05504,0.07822 -0.09716,0.102171 0.02638,-0.0099 0.05653,-0.0062 0.08304,-0.01576 0.04666,-0.01677 -0.119809,0.0073 -0.08061,-0.01462 -0.01466,-0.0053 -0.02524,-0.0081 -0.0384,-0.01639 -0.004,-0.0025 -0.01524,-0.01153 -0.01114,-0.0091 0.248433,0.149709 0.143119,0.08907 0.08705,0.05803 -0.01847,-0.01709 -0.03594,-0.03532 -0.0554,-0.05127 -0.0062,-0.0051 -0.01908,-0.01939 -0.02132,-0.01161 -0.0057,0.0198 0.04091,0.05206 0.02122,0.05802 -0.0086,0.0026 -0.01146,-0.01393 -0.01611,-0.02163 -0.01849,-0.03068 -0.03546,-0.06224 -0.05319,-0.09336 -0.01148,-0.01503 -0.149624,-0.188535 -0.172212,-0.17769 -0.02318,0.01113 0.02413,0.02561 -0.0064,0.01426 -0.0079,0.02451 -0.0011,0.01037 -0.02674,-0.03488 -0.03987,-0.0702 -0.07851,-0.132736 -0.135642,-0.189992 -0.01098,-0.01099 -0.0222,-0.02171 -0.0333,-0.03257 0.05285,0.09146 0.09688,0.224776 0.04329,0.325111 -0.0013,0.0023 -0.0011,-0.0052 -0.0016,-0.0078 -0.009,-0.04125 0.04478,-0.07012 0.07039,-0.08772 0.01429,-0.0098 0.215495,-0.138824 0.07766,-0.06171 -0.19803,-0.130117 -0.462481,-0.193311 -0.594095,-0.39035 -0.07089,-0.106129 0.04081,-0.253429 0.08381,-0.373596 0.01929,-0.05391 0.197218,-0.15024 0.0083,-0.04151 -0.108019,0.06964 -0.218305,0.136943 -0.315036,0.22223 -0.02947,0.03116 -0.06201,0.05968 -0.0884,0.09349 -0.113933,0.146005 -0.158039,0.323296 -0.142862,0.505217 0.01188,0.185158 0.04872,0.365755 0.144624,0.527605 0.107182,0.166942 0.238254,0.316533 0.399737,0.433634 0.124722,0.109162 0.250458,0.217289 0.381964,0.31796 z" /><path
         style="fill:#0d6efd;fill-opacity:1;stroke-width:1.552;stroke-linecap:square"
         id="path23"
         d="m 37.660394,23.544835 c 0.289859,-0.321159 0.570553,-0.649597 0.869516,-0.962503 0.368615,-0.374822 0.74022,-0.74723 1.120008,-1.110782 0.152733,-0.131235 0.282104,-0.288183 0.434404,-0.41977 0.06066,-0.05241 0.127992,-0.09658 0.192193,-0.144595 0.215358,-0.154708 0.458832,-0.261982 0.689007,-0.391711 0.196106,-0.10351 0.398007,-0.195884 0.598836,-0.28987 0.08613,-0.03594 0.16578,-0.07244 0.259165,-0.07734 0.14287,-0.03375 0.482785,-0.141863 0.447752,-0.342716 -0.119671,-0.68611 -0.176004,-0.65025 -0.524595,-0.682518 -0.226571,-0.01264 -0.439804,0.05276 -0.647565,0.135331 -0.335605,0.142795 -0.65546,0.320637 -0.977911,0.490583 -0.334756,0.175519 -0.65964,0.369062 -0.977053,0.574089 -0.143264,0.09062 -0.281834,0.188213 -0.424362,0.279893 -0.09273,0.05964 -0.04806,0.03701 -0.109001,0.06547 0.430072,-0.219734 0.07963,-0.101967 0.689264,0.681569 0.0076,0.0098 0.01757,-0.01769 0.02661,-0.02628 0.02742,-0.02605 0.05437,-0.05264 0.08277,-0.07763 0.08128,-0.07153 0.165973,-0.139093 0.248915,-0.208692 0.296696,-0.247629 0.600268,-0.485535 0.912011,-0.713826 0.257717,-0.184625 0.525319,-0.354555 0.792308,-0.525251 0.123822,-0.07588 0.246229,-0.146261 0.391445,-0.165098 0.07954,0.0022 0.160922,-0.01043 0.239938,0.0023 -0.136594,-0.28127 -0.273188,-0.56254 -0.409782,-0.84381 0.0154,-0.01417 0.06688,-0.04583 0.04621,-0.04251 -0.03094,0.005 -0.05359,0.03252 -0.0808,0.04806 -0.107341,0.0613 -0.216992,0.118925 -0.325247,0.178593 -0.367575,0.19467 -0.715893,0.423373 -1.05818,0.659004 -0.243324,0.169508 -0.487769,0.340005 -0.713462,0.532939 -0.111881,0.09564 -0.20243,0.183384 -0.309012,0.283929 -0.218519,0.207743 -0.426394,0.42614 -0.638331,0.640465 -0.155115,0.162646 -0.294682,0.339443 -0.434038,0.515596 -0.103706,0.125261 -0.210667,0.247239 -0.314463,0.372602 -0.139827,0.155964 -0.241938,0.338534 -0.337793,0.523375 -0.05663,0.126341 -0.14069,0.234851 -0.214734,0.350474 -0.05275,0.09182 -0.102978,0.181967 -0.164864,0.267863 -0.05602,0.09125 -0.124362,0.172324 -0.201255,0.246309 -0.09127,0.08295 -0.204254,0.133312 -0.309248,0.196392 -0.138496,0.08703 -0.276529,0.175501 -0.4186,0.256602 -0.110935,0.06453 -0.233783,0.08745 -0.356526,0.117124 -0.173808,0.0312 -0.342151,0.08512 -0.514162,0.123685 -0.09078,0.01585 -0.183076,0.01572 -0.274892,0.01682 -0.140676,0.0021 -0.281366,0.0016 -0.422045,2.22e-4 -0.02096,-2.26e-4 -0.04191,-4.5e-4 -0.06287,-6.88e-4 -0.0358,-3.7e-4 -0.147749,-0.0023 -0.10478,-0.0096 0.0949,-0.01616 0.03896,0.0076 0.07295,-0.0077 0.13499,0.07649 0.168973,0.06545 0.235831,0.167795 0.02246,0.0344 0.03297,0.06251 0.04193,0.100487 0.0067,0.02861 0.0013,0.01432 -5.29e-4,0.0096 -8e-5,0.0043 -5.3e-4,0.01712 -2.39e-4,0.01286 0.0059,-0.06713 0.0258,-0.114435 0.06183,-0.171625 0.0607,-0.124241 0.160088,-0.218286 0.252748,-0.318063 0.02808,-0.02709 0.05644,-0.07416 0.09961,-0.08079 0,0 -0.58965,-0.79273 -0.58965,-0.79273 v 0 c -0.08731,0.06618 -0.173781,0.133319 -0.244761,0.217737 -0.138961,0.147959 -0.274388,0.30005 -0.369892,0.480931 -0.118928,0.21223 -0.205537,0.436601 -0.201198,0.683775 0.01048,0.138349 0.03361,0.272227 0.11112,0.391534 0.02574,0.03963 0.05191,0.0812 0.08925,0.110175 0.07273,0.05644 0.157662,0.09509 0.236492,0.142628 0.154387,0.05157 0.312542,0.05094 0.473435,0.0461 0.149852,-7.68e-4 0.299723,4.23e-4 0.449554,-0.002 0.155752,-0.0064 0.311155,-0.02171 0.462288,-0.06201 0.167179,-0.04536 0.333999,-0.09154 0.503719,-0.126908 0.207872,-0.04965 0.410371,-0.112923 0.593682,-0.226017 0.140441,-0.08409 0.278577,-0.172012 0.417296,-0.258921 0.170709,-0.09761 0.342958,-0.194293 0.483132,-0.335013 0.108931,-0.1104 0.209462,-0.229233 0.293428,-0.360001 0.07323,-0.101973 0.140642,-0.206868 0.200025,-0.317331 0.07988,-0.13867 0.178771,-0.26669 0.243768,-0.414232 0.06698,-0.130401 0.135107,-0.258266 0.237287,-0.365601 0.10583,-0.129637 0.21845,-0.253036 0.322318,-0.384231 0.12179,-0.151955 0.233113,-0.312751 0.369144,-0.452627 0.202149,-0.208887 0.404201,-0.417935 0.609105,-0.624104 0.281771,-0.269791 0.584822,-0.515131 0.9114,-0.729335 0.319746,-0.213895 0.642106,-0.426224 0.988779,-0.594676 0.07811,-0.04011 0.155729,-0.08117 0.233881,-0.121192 0.05652,-0.02895 0.116012,-0.0524 0.170426,-0.08513 0.04845,-0.02915 0.156443,-0.03728 0.142473,-0.09207 -0.07802,-0.30598 -0.257643,-0.576593 -0.386466,-0.864889 -0.147529,0.01422 -0.297352,0.01101 -0.44187,0.04979 -0.235368,0.06692 -0.451387,0.173813 -0.653614,0.311965 -0.279259,0.184476 -0.560178,0.36649 -0.829365,0.565719 -0.321773,0.241586 -0.639845,0.487302 -0.951119,0.742345 -0.13059,0.107507 -0.266996,0.209227 -0.391925,0.323398 -0.03598,0.03288 -0.123806,0.05692 -0.104904,0.101834 0.392887,0.93359 0.229367,0.940326 0.66363,0.739306 0.174295,-0.127061 0.35351,-0.247317 0.531837,-0.368607 0.292629,-0.192556 0.593293,-0.373851 0.904179,-0.535439 0.291213,-0.152048 0.580802,-0.311047 0.889862,-0.424527 0.08057,-0.02702 0.161941,-0.05564 0.247589,-0.03499 -0.293663,-0.02203 -0.317153,-0.0033 -0.416708,-0.662526 -0.02265,-0.149867 0.154546,-0.218551 0.260448,-0.267283 5.29e-4,-2.01e-4 -7.94e-4,2.64e-4 -0.0013,3.96e-4 -0.008,0.0016 -0.01593,0.0032 -0.02389,0.0047 -0.172095,0.03661 -0.333705,0.09934 -0.491095,0.177788 -0.211183,0.107291 -0.428054,0.203217 -0.634016,0.320546 -0.269211,0.14684 -0.545394,0.283173 -0.792186,0.467156 -0.07871,0.06129 -0.195385,0.150573 -0.26705,0.213994 -0.153138,0.135521 -0.285758,0.293264 -0.434628,0.433203 -0.371764,0.379503 -0.741241,0.761236 -1.114542,1.139224 -0.300791,0.304919 -0.586721,0.624202 -0.8959,0.920468 z" /><path
         style="fill:#0d6efd;fill-opacity:1;stroke-width:1.552;stroke-linecap:square"
         id="path24"
         d="m 32.866732,25.789774 c 0.146886,-0.0048 0.293902,-0.0038 0.440841,-0.0027 0.117644,0.002 0.235291,0.001 0.35294,0.001 0.160431,0.0066 0.318964,-0.01188 0.478282,-0.02694 0.187069,-0.03036 0.373187,-0.07131 0.551405,-0.136197 0.133559,-0.03891 0.268566,-0.07294 0.403016,-0.109122 0.107085,-0.0332 0.21762,-0.05537 0.324573,-0.08832 0.09979,-0.02073 0.188764,-0.0818 0.289187,-0.09876 0.126489,-0.0092 0.250192,-0.04079 0.373819,-0.06771 0.149728,-0.02543 0.298349,-0.05673 0.446653,-0.08942 0.112395,-0.03334 0.224822,-0.06666 0.338617,-0.09429 0.170923,-0.03991 0.319926,-0.129904 0.466558,-0.222717 0.146968,-0.09331 0.277945,-0.208398 0.41112,-0.319762 0.127236,-0.122484 0.276202,-0.216735 0.417629,-0.321803 0.16473,-0.119302 0.325012,-0.244262 0.485246,-0.369602 0.177935,-0.143079 0.334179,-0.309392 0.483225,-0.481627 0.152585,-0.179778 0.289221,-0.37228 0.433096,-0.558959 0.157681,-0.212952 0.333552,-0.410878 0.51326,-0.605198 0.142579,-0.156913 0.309062,-0.290077 0.490566,-0.398988 0.165381,-0.100172 0.327139,-0.20852 0.502373,-0.291001 0.170894,-0.07539 0.332398,-0.168724 0.495818,-0.258545 0.155753,-0.101994 0.307571,-0.213355 0.451176,-0.332275 0.156996,-0.12001 0.294653,-0.262918 0.416687,-0.41777 0.122145,-0.167728 0.188486,-0.360472 0.222869,-0.562922 0.01019,-0.113294 0.02683,-0.230743 0.01109,-0.344559 -0.0058,-0.04173 -0.01751,-0.08241 -0.0263,-0.12361 -0.06347,-0.186002 -0.191346,-0.339241 -0.36142,-0.437326 -0.202309,-0.14989 -0.382532,-0.208005 -0.623211,-0.23653 -0.222662,-0.02265 -0.445574,-0.01216 -0.667289,0.01347 -0.299218,0.06043 -0.595125,0.140814 -0.879081,0.252845 -0.199435,0.08917 -0.40599,0.162054 -0.601874,0.259191 -0.196202,0.103049 -0.101531,0.05499 -0.283697,0.144821 -0.319656,0.163173 -0.640027,0.322147 -0.946737,0.508892 -0.379672,0.249266 -0.748438,0.512958 -1.099402,0.801192 -0.440114,0.361904 -0.884222,0.718418 -1.332736,1.069906 -0.336005,0.260705 -0.686001,0.50236 -1.019117,0.766744 -0.1446,0.123113 -0.292719,0.246905 -0.40877,0.398713 -0.07137,0.09336 -0.08737,0.128248 -0.144524,0.227535 -0.106209,0.220952 -0.152796,0.464204 -0.213907,0.700231 -0.06024,0.196961 -0.108514,0.398201 -0.186788,0.589027 -0.05527,0.09957 -0.09585,0.214417 -0.171344,0.301637 0.04323,-0.08656 0.01675,-0.02626 -0.04477,-0.0203 -0.113144,-0.0017 -0.215339,0.07224 -0.312139,0.121828 -0.06684,0.03869 -0.142277,0.0669 -0.218139,0.08424 -0.05128,0.0062 -0.103248,0.0041 -0.154815,0.0039 -0.03575,-0.0076 -0.07893,0.0096 -0.113964,-6.08e-4 -0.0046,-0.0013 0.0072,-0.007 0.01191,-0.008 0.01619,-0.0033 0.03388,-0.01032 0.04939,-0.0046 0.07443,0.02743 0.143325,0.06802 0.214987,0.102025 0.03318,0.04001 0.03927,0.04218 0.06157,0.09045 0.01259,0.02725 0.01106,0.05617 0.01162,0.04274 0.0046,-0.112729 -0.0075,0.03189 7.93e-4,-0.05766 0.01434,-0.07828 0.05175,-0.150672 0.104749,-0.209625 0.07191,-0.08492 0.15662,-0.156837 0.233952,-0.236604 0.0091,-0.0082 0.01601,-0.01968 0.02718,-0.02461 0.0061,-0.0027 -0.01101,0.01053 -0.01019,0.01713 7.94e-4,0.0055 0.02056,-0.0064 0.06075,-0.02608 0.119906,-0.05864 0.02742,-0.01222 0.160985,-0.0803 0.135118,-0.0755 0.286438,-0.115088 0.4229,-0.188313 0.04409,-0.02366 0.08623,-0.05078 0.129341,-0.07617 0.150151,-0.07497 0.290341,-0.16699 0.429096,-0.260828 0,0 -0.585549,-0.785007 -0.585549,-0.785007 v 0 c -0.120909,0.08222 -0.245928,0.157229 -0.376404,0.223524 -0.16451,0.09033 -0.346509,0.143257 -0.510786,0.23466 -0.169294,0.08322 -0.349602,0.152455 -0.477401,0.298267 -0.100015,0.106757 -0.213556,0.201256 -0.299054,0.321497 -0.142475,0.199841 -0.254785,0.416013 -0.287416,0.662765 -0.02598,0.295695 0.0021,0.558085 0.225107,0.777727 0.0954,0.05041 0.186619,0.109717 0.286216,0.151234 0.105362,0.04392 0.251611,0.01591 0.365109,0.01928 0.130527,-0.0076 0.26071,-0.0237 0.385188,-0.0659 0.126085,-0.04387 0.25196,-0.09072 0.367853,-0.157862 0.01725,-0.0094 0.03487,-0.01818 0.05173,-0.02828 0.0081,-0.0048 -0.01712,0.008 -0.02537,0.0125 -0.0071,0.0039 0.01617,-0.0019 0.02405,-0.0038 0.08697,-0.02119 0.0663,-0.01633 0.152998,-0.04544 0.174755,-0.07341 0.341373,-0.165381 0.45471,-0.323194 0.102069,-0.153832 0.189209,-0.31646 0.26084,-0.486789 0.08845,-0.226826 0.155096,-0.460914 0.223321,-0.6945 0.04224,-0.16488 0.08132,-0.330684 0.13216,-0.493224 0.0746,-0.150957 0.202329,-0.260981 0.32758,-0.370323 0.327163,-0.266136 0.670111,-0.512106 0.997069,-0.778596 0.450046,-0.354702 0.900195,-0.709268 1.344798,-1.070769 0.324967,-0.25524 0.664062,-0.491896 1.008928,-0.719488 0.29233,-0.169006 0.596381,-0.315462 0.897628,-0.46775 0.262427,-0.132965 0.527373,-0.259361 0.803441,-0.362189 0.21662,-0.07478 0.438071,-0.139717 0.664327,-0.177768 0.149161,-0.01088 0.2999,-0.0094 0.447955,0.01393 0.02395,0.0061 0.03175,0.0061 0.05126,0.01668 0.0045,0.0025 0.01736,0.01114 0.01283,0.0087 -0.276305,-0.151431 -0.137036,-0.07536 -0.07194,-0.03893 0.113707,0.07935 0.02069,0.03255 0.06743,0.03586 0.0056,3.97e-4 0.01675,0.0095 0.01625,0.0039 -0.0019,-0.02105 -0.0344,-0.06963 -0.02299,-0.09691 -0.0048,-0.172808 0.01098,-0.0032 0.0033,0.04927 -0.0024,0.04923 -0.0084,0.09771 -0.03305,0.141528 -0.08024,0.103709 -0.174416,0.196574 -0.278331,0.276486 -0.105979,0.08323 -0.217199,0.161343 -0.329176,0.23586 -0.153162,0.086 -0.303885,0.175762 -0.466243,0.2441 -0.195779,0.104281 -0.384234,0.221342 -0.570974,0.340972 -0.240419,0.158528 -0.467373,0.336948 -0.65949,0.552972 -0.194709,0.212059 -0.381079,0.431652 -0.556958,0.65962 -0.138552,0.174117 -0.268211,0.355342 -0.413695,0.52391 -0.11049,0.129917 -0.229018,0.253972 -0.363043,0.359949 -0.151587,0.120472 -0.306252,0.236696 -0.462399,0.351118 -0.157839,0.114672 -0.319574,0.224703 -0.464267,0.356159 -0.100181,0.08469 -0.199935,0.170745 -0.311729,0.240113 -0.07568,0.04589 -0.146037,0.08685 -0.235395,0.10055 -0.101179,0.02853 -0.202697,0.05582 -0.303477,0.08571 -0.146203,0.03334 -0.293796,0.06014 -0.441063,0.08829 -0.143883,0.03125 -0.290716,0.04625 -0.432982,0.08487 -0.09662,0.03178 -0.191207,0.06962 -0.289206,0.09706 -0.105542,0.02469 -0.207359,0.06205 -0.31242,0.08854 -0.152802,0.04344 -0.308472,0.07714 -0.458322,0.130507 -0.111424,0.03551 -0.22675,0.06192 -0.343077,0.0742 -0.132704,0.0118 -0.265104,0.01773 -0.39842,0.01176 -0.117578,-1.6e-5 -0.235156,-0.001 -0.352729,10e-4 -0.14713,0.0011 -0.294336,0.0021 -0.44141,-0.0027 z" /></g><path
       style="fill:#fdc60d;fill-opacity:1;stroke-width:1.09498;stroke-linecap:square"
       d="m 6.0425059,-2.0934634 -0.00536,1.33765963 c 0,0 -0.4902972,-0.11724507 -0.6821527,0 -0.1918555,0.11724506 -0.2931126,0.25047806 -0.2558075,0.36772306 0.037306,0.11724512 0.026647,0.22383145 0.2398195,0.3783818 0.2131729,0.15455024 0.5009562,0.30377132 0.5009562,0.30377132 l 0.1855595,0.12383419 0.1789988,0.22233566 0.099863,0.25059856 c 0,0 0.05276,0.0866732 0.039566,0.26944038 -0.013187,0.1827674 -0.045224,0.2995879 -0.045224,0.2995879 l -0.064069,0.1469675 c 0,0 -0.016961,-0.4446712 -0.1846519,-0.5746807 C 5.8823493,0.90214589 5.7994445,0.83431471 5.7994445,0.83431471 L 5.4866673,0.73633645 c 0,0 -0.4465552,-0.0678315 -0.6783117,-0.0113045 -0.2317565,0.056526 -0.8177426,-0.0395684 -0.8177426,-0.0395684 0,0 -0.2505985,-0.0508738 -0.3335033,-0.12247279 C 3.5742049,0.49139099 3.5327525,0.46312809 3.5327525,0.46312809 L 3.4404268,0.21441376 c 0,0 0.016958,-0.27320891 0.056526,-0.35046115 0.039569,-0.0772521 -0.073484,0.10174677 -0.073484,0.10174677 0,0 -0.2336408,0.38437679 -0.1620412,0.57468084 0.0716,0.19030421 0.1507358,0.29205088 0.1507358,0.29205088 L 3.73813,1.0453458 3.9416235,1.1885448 4.105549,1.3939225 4.192222,1.6237948 4.188452,1.7500363 4.141347,1.9478773 4.0320635,2.1589075 3.9246641,2.2908015 c 0,0 -0.015074,-0.1921883 -0.1055151,-0.2807458 -0.09044,-0.088557 -0.2411756,-0.1601569 -0.2411756,-0.1601569 0,0 -0.197841,-0.047105 -0.2694406,-0.028263 -0.0716,0.018842 -0.3579979,0.054642 -0.425829,0.086673 -0.067832,0.032031 -0.3711873,0.052758 -0.3711873,0.052758 0,0 -0.3768401,0.00565 -0.5219234,-0.096094 C 1.8445105,1.7632257 1.7879845,1.7217734 1.7879845,1.7217734 c 0,0 -0.1413149,-0.1752305 -0.1055151,-0.3033561 0.035799,-0.1281256 -0.2468301,0.3485769 -0.2468301,0.3485769 l -0.0358,0.2863986 0.092326,0.226104 0.1318939,0.1601569 0.032032,0.1375465 0.00754,0.1450836 -0.04145,0.1187045 -0.1092837,0.2110302 -0.2355248,0.254367 c 0,0 -0.030147,-0.2882826 -0.073484,-0.3353874 -0.043337,-0.047105 -0.060019,-0.1195466 -0.060019,-0.1195466 0,0 -0.17495317,-0.2980779 -0.8349331,-0.2857032 -0.65997997,0.012375 -0.8455993,-0.443424 -0.8455993,-0.443424 0,0 -0.0494983,-0.086622 -0.0185624,-0.2165558 0.0309356,-0.1299341 0.0845589,-0.2227438 0.0845589,-0.2227438 0,0 0.0226869,-0.1835568 -0.14437058,-0.07631 -0.16705742,0.1072466 -0.34442702,0.311428 -0.34442702,0.311428 l 0.0391864,-4.0465023 z"
       id="path27" /></g></svg>
